<svg width="1440" height="757" viewBox="0 0 1440 757" fill="none" xmlns="http://www.w3.org/2000/svg">
<g opacity="0.9">
<path opacity="0.49" d="M1086.05 359.87C1131.34 359.87 1168.05 323.157 1168.05 277.87C1168.05 232.583 1131.34 195.87 1086.05 195.87C1040.76 195.87 1004.05 232.583 1004.05 277.87C1004.05 323.157 1040.76 359.87 1086.05 359.87Z" fill="#D8F1F0"/>
<path d="M1086.05 351.87C1126.92 351.87 1160.05 318.739 1160.05 277.87C1160.05 237.001 1126.92 203.87 1086.05 203.87C1045.18 203.87 1012.05 237.001 1012.05 277.87C1012.05 318.739 1045.18 351.87 1086.05 351.87Z" fill="#D8F1F0"/>
<path d="M1212.94 8.99023C1207.73 9.70023 1206.89 10.5402 1206.17 15.7602C1206.15 15.9002 1205.94 15.9002 1205.92 15.7602C1205.21 10.5502 1204.37 9.71023 1199.15 8.99023C1199.01 8.97023 1199.01 8.76023 1199.15 8.74023C1204.36 8.03023 1205.2 7.19023 1205.92 1.97023C1205.94 1.83023 1206.15 1.83023 1206.17 1.97023C1206.88 7.18023 1207.72 8.02024 1212.94 8.74023C1213.08 8.77024 1213.08 8.97023 1212.94 8.99023Z" fill="#D8F1F0"/>
<path d="M169.94 306.99C164.73 307.7 163.89 308.54 163.17 313.76C163.15 313.9 162.94 313.9 162.92 313.76C162.21 308.55 161.37 307.71 156.15 306.99C156.01 306.97 156.01 306.76 156.15 306.74C161.36 306.03 162.2 305.19 162.92 299.97C162.94 299.83 163.15 299.83 163.17 299.97C163.88 305.18 164.72 306.02 169.94 306.74C170.08 306.77 170.08 306.97 169.94 306.99Z" fill="#D8F1F0"/>
<path d="M364.289 74.0695C355.779 75.2295 354.409 76.5995 353.249 85.1095C353.219 85.3495 352.879 85.3495 352.839 85.1095C351.679 76.5995 350.309 75.2295 341.799 74.0695C341.559 74.0395 341.559 73.6995 341.799 73.6595C350.309 72.4995 351.679 71.1295 352.839 62.6195C352.869 62.3795 353.209 62.3795 353.249 62.6195C354.409 71.1295 355.779 72.4995 364.289 73.6595C364.529 73.6995 364.529 74.0395 364.289 74.0695Z" fill="#D8F1F0"/>
<path d="M70.8797 50.9C69.4897 51.09 69.2697 51.31 69.0797 52.7C69.0697 52.74 69.0197 52.74 69.0097 52.7C68.8197 51.31 68.5997 51.09 67.2097 50.9C67.1697 50.89 67.1697 50.84 67.2097 50.83C68.5997 50.64 68.8197 50.42 69.0097 49.03C69.0197 48.99 69.0697 48.99 69.0797 49.03C69.2697 50.42 69.4897 50.64 70.8797 50.83C70.9197 50.84 70.9197 50.9 70.8797 50.9Z" fill="#D8F1F0"/>
<path d="M492.88 1.9C491.49 2.09 491.27 2.31 491.08 3.7C491.07 3.74 491.02 3.74 491.01 3.7C490.82 2.31 490.6 2.09 489.21 1.9C489.17 1.89 489.17 1.84 489.21 1.83C490.6 1.64 490.82 1.42 491.01 0.03C491.02 -0.01 491.07 -0.01 491.08 0.03C491.27 1.42 491.49 1.64 492.88 1.83C492.92 1.84 492.92 1.9 492.88 1.9Z" fill="#D8F1F0"/>
<g opacity="0.32">
<g opacity="0.32">
<path opacity="0.52" d="M333.749 344.97C348.939 343.74 364.039 347.6 378.329 355.04C381.789 356.84 384.179 355.5 386.669 352.99C399.849 339.7 415.509 330.78 433.829 326.56C445.839 323.8 458.039 324.76 470.119 325.18C476.969 325.42 481.079 322.75 484.399 317.46C493.279 303.35 506.789 295.24 521.699 289.08C526.439 287.12 531.279 284.99 536.279 284.16C548.219 282.16 560.369 282.53 572.399 283.15C590.539 284.09 606.139 291.99 620.399 302.69C633.419 312.45 641.749 325.62 647.059 340.83C649.459 347.68 651.159 348.55 657.559 345.12C676.799 334.83 697.299 333.5 718.509 335.72C725.529 336.45 732.169 338.1 738.769 340.37C742.539 341.66 745.049 340.72 746.239 336.47C756.259 300.68 780.659 280.38 816.289 273.24C832.329 270.03 849.009 270.31 864.699 274.58C876.239 277.73 888.089 281.89 896.929 291.33C903.019 297.83 904.039 297.15 910.149 290.67C919.569 280.68 930.759 273.1 943.629 267.97C955.189 263.36 967.089 262.08 979.449 261.76C994.569 261.37 1008.88 263.76 1022.64 269.84C1031.15 273.6 1039.31 277.91 1045.98 284.58C1049.62 288.22 1053.64 290.27 1059.19 290.07C1070.79 289.65 1082.44 289.38 1093.79 292.89C1103.33 295.84 1112.53 299.52 1121.05 304.73C1125 307.14 1127.88 306.18 1130.56 302.88C1140.28 290.9 1152.4 282.63 1166.99 277.23C1180.04 272.4 1193.23 270.32 1206.97 270.98C1210.72 271.16 1213.21 269.61 1215.28 266.67C1224.5 253.57 1235.92 242.9 1250.53 236.06C1262.03 230.68 1274.06 227.06 1286.92 226.99C1300.2 226.92 1313.41 226.6 1326.38 230.88C1351.49 239.17 1370.26 254.26 1380.79 278.91C1383.16 284.45 1384.53 290.24 1385.74 296.09C1387.16 302.98 1388.18 303.9 1395.41 303.92C1410.41 303.96 1425.4 303.92 1440.4 303.95C1447.83 303.96 1450.87 307.06 1450.92 314.54C1450.93 316.21 1450.94 317.87 1450.91 319.54C1450.8 325.25 1447.33 328.72 1441.63 328.86C1424.49 329.3 1407.4 327.32 1390.24 327.73C1385.71 327.84 1383.28 329.19 1381.8 333.57C1377.19 347.27 1369.45 359.21 1358 367.92C1342.36 379.82 1325.04 388.39 1304.73 388.82C1301.23 388.89 1297.7 389.16 1294.24 388.77C1288.08 388.08 1284.3 391.19 1280.91 395.76C1265.2 416.92 1244.57 429.72 1218.1 432.84C1197.83 435.23 1178.47 432.8 1159.94 423.87C1155.93 421.94 1151.75 420.54 1148.19 417.67C1145.68 415.65 1143.27 416.89 1141.15 418.99C1136.09 424.03 1131.38 429.46 1125.53 433.65C1117.99 439.06 1109.77 443.09 1101.26 446.83C1084.2 454.32 1066.22 452.66 1048.8 451.3C1031.21 449.93 1015.46 441.57 1002.32 429.4C998.909 426.24 995.559 424.77 990.859 424.65C974.389 424.24 958.009 425.67 941.639 426.89C925.989 428.05 910.329 429.33 894.729 430.92C872.899 433.14 851.069 433.88 829.159 433.95C819.149 433.98 809.769 432.02 800.469 428.77C795.269 426.95 794.139 427.65 792.779 432.9C785.679 460.39 768.209 479.22 742.579 490C732.709 494.15 721.979 497.14 710.709 496.88C694.889 496.51 679.029 497.3 663.229 496.66C640.359 495.73 617.499 494.53 594.619 493.64C581.379 493.12 568.139 492.24 554.879 491.66C532.839 490.68 510.819 489.44 488.779 488.54C479.989 488.18 471.189 487.98 462.399 487.84C444.839 487.56 427.729 485.36 411.679 477.63C407.849 475.79 404.559 476.55 401.389 479.78C386.539 494.9 368.469 504.46 347.459 506.47C323.689 508.74 300.179 507.05 279.459 492.9C276.189 490.67 273.099 488.14 270.079 485.57C269.019 484.66 268.209 483.56 266.699 484.18C265.249 484.78 265.079 486.15 265.069 487.54C265.059 490.54 265.069 493.54 265.019 496.53C264.889 504.52 261.679 507.89 253.789 507.75C240.309 507.5 226.869 508.68 213.409 509.04C196.649 509.48 179.889 510.25 163.129 510.96C145.539 511.7 127.939 512.26 110.349 512.97C93.7594 513.64 77.1694 514.28 60.5694 514.95C42.8094 515.68 25.0494 516.32 7.29936 517.03C0.509361 517.3 -6.29064 517.63 -13.1006 517.8C-16.4206 517.88 -19.7106 517.57 -21.3706 514.38C-23.0206 511.22 -21.4606 508.1 -19.6306 505.51C-11.1406 493.48 -0.260639 484.93 14.2794 480.92C52.2794 470.45 90.6394 461.21 128.079 448.76C146.329 442.69 164.429 436.14 182.739 430.26C192.949 426.98 203.259 423.6 214.239 423.94C220.919 424.15 227.209 426.39 233.629 427.92C238.499 429.08 242.909 426.05 241.789 421.37C240.109 414.41 243.189 408.79 244.959 402.65C248.469 390.46 255.389 380.25 264.179 371.63C283.139 353.06 305.909 343.58 333.749 344.97ZM474.969 482.69C496.199 483.69 517.449 484.24 538.669 485.57C552.749 486.45 566.859 486.9 580.959 487.6C602.519 488.66 624.079 489.69 645.639 490.58C664.909 491.37 684.209 492.22 703.519 491.83C711.539 491.67 719.389 491.13 727.149 488.89C758.399 479.84 780.119 461.44 787.519 428.52C789.189 421.08 792.029 418.1 800.359 421.54C811.369 426.07 822.829 427.98 834.849 428.13C855.839 428.39 876.649 426.12 897.519 424.8C905.619 424.29 913.719 423.5 921.799 422.7C937.639 421.12 953.499 419.85 969.399 418.99C974.199 418.73 978.979 418.81 983.809 418.23C992.339 417.2 1000.58 417.42 1007.01 425.17C1010.54 429.43 1015.8 432.19 1020.79 434.9C1035.11 442.69 1050.28 446.23 1066.7 446.16C1082.4 446.09 1097.01 442.98 1110.78 435.61C1120.57 430.37 1129.06 423.6 1135.9 414.77C1141.39 407.68 1144.36 406.97 1151.8 411.91C1171.89 425.27 1194.23 429.45 1217.6 426.6C1243.21 423.48 1264.04 411.17 1278.67 389.48C1281.82 384.81 1286.05 383.15 1291.35 382.99C1298.32 382.77 1305.27 383.43 1312.25 382.09C1342.47 376.29 1364.63 360.31 1376.69 331.52C1380.64 322.09 1383.45 320.15 1393.62 321.11C1408.02 322.47 1422.47 322.51 1436.91 322.99C1443.07 323.2 1445.14 321.27 1445.07 316.25C1445.01 311.55 1442.9 309.79 1437.1 309.78C1422.44 309.75 1407.77 309.82 1393.11 309.74C1384.38 309.69 1381.17 306.77 1380.05 298.16C1378.38 285.36 1372.8 274.12 1365.5 263.82C1357.68 252.79 1346.91 244.88 1334.59 239.54C1316.5 231.71 1297.46 230.1 1278.09 233.08C1256 236.48 1237.99 246.96 1224.47 264.94C1216.13 276.02 1216.06 275.96 1201.93 275.97C1200.26 275.97 1198.59 275.9 1196.93 275.99C1177.82 277 1161.16 284.05 1146.18 295.84C1140.47 300.34 1136.38 306.17 1131.25 311.1C1127.67 314.54 1124.66 314.61 1120.69 312.01C1110.84 305.57 1100.57 299.92 1089.05 296.98C1078.11 294.19 1066.94 295.05 1055.83 294.96C1052.31 294.93 1048.75 294.79 1045.99 292.31C1043.16 289.76 1040.22 287.45 1037.09 285.27C1020.36 273.61 1002.1 266.96 981.519 266.9C974.539 266.88 967.639 267.1 960.959 269.11C954.479 271.06 947.879 272.52 941.629 275.42C929.309 281.12 919.259 289.57 910.099 299.35C906.589 303.1 901.949 303.1 898.299 299.78C891.739 293.81 884.039 289.56 876.149 285.72C857.459 276.62 837.539 275.69 817.639 279.13C797.229 282.66 780.099 292.7 766.889 309.18C759.209 318.75 755.039 329.83 751.379 341.18C750.019 345.39 747.919 347.04 743.569 347.13C739.399 347.21 735.789 345.46 732.179 344.19C717.039 338.86 701.469 338.21 686.139 341.25C675.459 343.37 664.459 345.68 654.789 351.64C650.279 354.42 644.779 352.34 644.139 347.64C643.159 340.5 639.959 334.55 636.279 328.6C630.099 318.6 621.029 311.32 612.739 303.33C606.129 296.96 597.399 294.76 588.949 291.71C572.869 285.9 556.229 286.71 540.329 288.98C529.519 290.52 517.779 293.54 508.589 302.34C500.929 309.67 492.519 316.12 486.269 324.89C482.599 330.04 478.139 332.42 470.919 331.3C461.299 329.8 451.249 329.87 441.529 331.29C421.319 334.25 403.949 342.98 390.009 358.23C385.929 362.69 381.919 363.19 376.469 360.46C353.509 348.97 329.429 347.42 305.139 354.14C280.439 360.97 262.409 376.43 252.219 400.35C248.699 408.61 247.829 417.28 247.899 426.19C247.959 434.2 244.209 436.87 236.429 434.96C234.489 434.49 232.569 433.95 230.649 433.43C224.239 431.7 217.629 429.18 211.159 430.17C198.009 432.18 184.879 434.18 172.169 439.03C155.649 445.33 139.009 451.48 121.989 456.46C110.559 459.8 99.0994 463.09 87.8794 467.18C79.8694 470.1 71.4994 472.14 63.1794 474.1C49.9694 477.2 37.1094 481.52 23.7194 484.08C9.62936 486.77 -3.32064 492.42 -12.1006 504.76C-13.3806 506.56 -14.6006 508.58 -13.5106 510.77C-12.4806 512.84 -10.2206 512.59 -8.21064 512.76C-1.53064 513.33 5.03936 511.74 11.6894 511.75C28.7994 511.77 45.8594 510.62 62.9394 509.91C80.6794 509.17 98.4294 508.58 116.179 507.89C131.109 507.31 146.029 506.73 160.949 505.92C180.359 504.87 199.799 504.43 219.229 503.76C230.529 503.37 241.829 503.11 253.119 502.71C257.949 502.54 259.899 500.47 260.039 495.48C260.149 491.82 260.129 488.15 260.069 484.49C260.019 481.19 260.279 477.82 263.569 476.29C266.889 474.75 269.079 477.47 271.309 479.46C292.139 498.07 316.999 504.09 344.039 501.42C365.939 499.25 384.849 489.95 399.839 473.5C403.429 469.56 407.329 469.12 411.969 471.25C416.349 473.26 420.729 475.33 425.259 476.94C441.359 482.66 458.219 482.3 474.969 482.69Z" fill="#94B9F2"/>
<path opacity="0.52" d="M474.97 482.69C458.22 482.3 441.36 482.66 425.25 476.92C420.72 475.31 416.34 473.24 411.96 471.23C407.33 469.1 403.42 469.55 399.83 473.48C384.83 489.93 365.93 499.24 344.03 501.4C316.99 504.07 292.12 498.06 271.3 479.44C269.07 477.45 266.88 474.73 263.56 476.27C260.26 477.8 260 481.18 260.06 484.47C260.12 488.13 260.14 491.8 260.03 495.46C259.88 500.45 257.94 502.52 253.11 502.69C241.81 503.09 230.51 503.35 219.22 503.74C199.79 504.4 180.35 504.84 160.94 505.9C146.02 506.71 131.1 507.29 116.17 507.87C98.4202 508.56 80.6702 509.14 62.9302 509.89C45.8502 510.61 28.7902 511.76 11.6802 511.73C5.03019 511.72 -1.52981 513.31 -8.21981 512.74C-10.2198 512.57 -12.4898 512.83 -13.5198 510.75C-14.5998 508.56 -13.3898 506.55 -12.1098 504.74C-3.32981 492.39 9.62019 486.75 23.7102 484.06C37.1002 481.5 49.9602 477.17 63.1702 474.08C71.4902 472.13 79.8602 470.09 87.8702 467.16C99.0902 463.07 110.55 459.78 121.98 456.44C139 451.46 155.64 445.31 172.16 439.01C184.88 434.16 198 432.17 211.15 430.15C217.62 429.16 224.23 431.68 230.64 433.41C232.56 433.93 234.49 434.46 236.42 434.94C244.19 436.85 247.95 434.18 247.89 426.17C247.82 417.26 248.68 408.59 252.21 400.33C262.41 376.42 280.43 360.95 305.13 354.12C329.42 347.4 353.51 348.96 376.46 360.44C381.91 363.16 385.92 362.67 390 358.21C403.93 342.96 421.31 334.22 441.52 331.27C451.24 329.85 461.28 329.78 470.91 331.28C478.14 332.41 482.6 330.02 486.26 324.87C492.51 316.1 500.92 309.65 508.58 302.32C517.77 293.52 529.51 290.5 540.32 288.96C556.22 286.69 572.86 285.89 588.94 291.69C597.4 294.74 606.12 296.94 612.73 303.31C621.02 311.3 630.08 318.57 636.27 328.58C639.95 334.53 643.16 340.48 644.13 347.62C644.77 352.32 650.27 354.4 654.78 351.62C664.45 345.67 675.44 343.36 686.13 341.23C701.46 338.19 717.03 338.83 732.17 344.17C735.78 345.44 739.4 347.19 743.56 347.11C747.91 347.03 750.01 345.37 751.37 341.16C755.03 329.81 759.2 318.73 766.88 309.16C780.09 292.68 797.22 282.64 817.63 279.11C837.52 275.67 857.45 276.6 876.14 285.7C884.03 289.54 891.73 293.79 898.29 299.76C901.94 303.08 906.58 303.09 910.09 299.33C919.24 289.55 929.29 281.1 941.62 275.4C947.87 272.51 954.47 271.04 960.95 269.09C967.63 267.08 974.53 266.86 981.51 266.88C1002.09 266.94 1020.35 273.6 1037.08 285.25C1040.22 287.44 1043.16 289.74 1045.98 292.29C1048.74 294.78 1052.3 294.91 1055.82 294.94C1066.93 295.03 1078.1 294.17 1089.04 296.96C1100.56 299.9 1110.83 305.55 1120.68 311.99C1124.66 314.59 1127.66 314.52 1131.24 311.08C1136.37 306.15 1140.46 300.31 1146.17 295.82C1161.15 284.02 1177.81 276.98 1196.92 275.97C1198.58 275.88 1200.25 275.95 1201.92 275.95C1216.05 275.94 1216.13 276 1224.46 264.92C1237.99 246.94 1255.99 236.46 1278.08 233.06C1297.45 230.08 1316.5 231.69 1334.58 239.52C1346.9 244.86 1357.66 252.76 1365.49 263.8C1372.79 274.1 1378.38 285.34 1380.04 298.14C1381.16 306.75 1384.37 309.67 1393.1 309.72C1407.76 309.81 1422.43 309.73 1437.09 309.76C1442.89 309.77 1445 311.53 1445.06 316.23C1445.12 321.25 1443.06 323.18 1436.9 322.97C1422.47 322.49 1408.01 322.45 1393.61 321.09C1383.44 320.13 1380.63 322.07 1376.68 331.5C1364.62 360.29 1342.47 376.27 1312.24 382.07C1305.27 383.41 1298.31 382.75 1291.34 382.97C1286.04 383.14 1281.82 384.79 1278.66 389.46C1264.02 411.15 1243.2 423.46 1217.59 426.58C1194.22 429.43 1171.89 425.25 1151.79 411.89C1144.36 406.95 1141.38 407.65 1135.89 414.75C1129.06 423.58 1120.56 430.35 1110.77 435.59C1097 442.96 1082.39 446.07 1066.69 446.14C1050.27 446.21 1035.09 442.67 1020.78 434.88C1015.8 432.17 1010.53 429.41 1007 425.15C1000.57 417.39 992.33 417.18 983.8 418.21C978.97 418.79 974.19 418.72 969.39 418.97C953.5 419.82 937.64 421.1 921.79 422.68C913.71 423.48 905.61 424.27 897.51 424.78C876.64 426.1 855.83 428.37 834.84 428.11C822.82 427.96 811.36 426.06 800.35 421.52C792.02 418.09 789.18 421.07 787.51 428.5C780.11 461.43 758.39 479.83 727.14 488.87C719.39 491.11 711.54 491.65 703.51 491.81C684.19 492.2 664.9 491.35 645.63 490.56C624.07 489.67 602.5 488.64 580.95 487.58C566.85 486.89 552.74 486.43 538.66 485.55C517.45 484.24 496.2 483.69 474.97 482.69Z" fill="#1064E4"/>
</g>
</g>
<path d="M497.049 519.87H80.0488C80.0488 519.87 176.049 479.87 245.049 472.87C270.409 470.3 349.049 464.87 377.049 477.87C382.829 480.55 389.339 476.73 395.219 470.89C406.819 459.37 413.049 443.51 413.049 427.16V392.6C413.049 391.09 414.269 389.87 415.779 389.87H503.819C505.589 389.87 507.019 391.33 506.979 393.1L506.089 436.85C522.769 440.74 558.039 450.11 573.049 462.87C593.049 479.87 597.049 464.87 597.049 464.87L599.799 420.83C599.939 418.61 601.789 416.87 604.019 416.87H654.849C656.229 416.87 657.529 417.53 658.329 418.65L673.899 440.28C674.619 441.28 675.779 441.87 677.009 441.87H694.209C695.779 441.87 697.049 440.6 697.049 439.03V420.87C697.049 420.87 697.049 414.87 707.049 416.87C716.119 418.68 754.789 377.74 761.919 370.09C762.649 369.31 763.659 368.87 764.729 368.87H868.459C869.469 368.87 870.449 369.29 871.139 370.03L902.889 403.64C903.629 404.42 904.659 404.87 905.739 404.87H991.789C992.599 404.87 993.359 404.54 993.919 403.96L1077.36 316.64C1078.44 315.51 1079.94 314.87 1081.5 314.87H1441.05L1441.71 529.49L497.049 519.87Z" fill="#5B90DD"/>
<path d="M1002.05 511.87V466.87C1002.05 466.87 1004.05 456.87 1014.05 456.87C1024.05 456.87 1027.05 464.87 1027.05 464.87V472.87C1027.05 472.87 1040.05 467.87 1040.05 477.87C1040.05 487.87 1028.05 488.87 1028.05 488.87V511.87H1002.05Z" fill="#27497C"/>
<path d="M1193.05 511.87V483.87C1193.05 483.87 1187.05 480.87 1192.05 476.87C1197.05 472.87 1198.05 479.87 1198.05 479.87V435.87C1198.05 435.87 1198.05 428.87 1207.05 428.87C1216.05 428.87 1215.05 436.87 1215.05 436.87L1214.05 480.87C1214.05 480.87 1216.05 475.87 1221.05 480.87C1226.05 485.87 1219.05 511.87 1219.05 511.87H1193.05Z" fill="#27497C"/>
<path d="M116.77 505.87L117.04 480.87L123.04 471.87V429.87C123.04 429.87 124.04 424.87 132.04 424.87C140.04 424.87 140.04 430.87 140.04 430.87L142.04 473.87L146.04 478.87V505.87H116.77Z" fill="#27497C"/>
<path d="M333.049 505.87V451.87C333.049 451.87 331.049 448.87 336.049 443.87C341.049 438.87 341.049 439.87 341.049 439.87V376.87C341.049 376.87 342.049 366.87 353.049 366.87C364.049 366.87 365.049 376.87 365.049 376.87V439.87C365.049 439.87 369.049 439.87 371.049 442.87C373.049 445.87 373.049 451.87 373.049 451.87V508.87L333.049 505.87Z" fill="#27497C"/>
<path d="M504.049 505.87V444.34C504.049 443.04 504.349 441.76 504.969 440.62C506.419 437.95 509.969 433.87 518.049 433.87C530.049 433.87 531.049 444.87 531.049 444.87L532.049 505.87H504.049Z" fill="#27497C"/>
<path d="M756.049 435.87C760.929 436.95 761.049 454.87 761.049 454.87H773.049L777.049 442.87V390.87C777.049 390.87 781.049 378.87 791.049 378.87C801.049 378.87 805.049 388.87 805.049 388.87V516.87H774.049L773.049 474.87L756.909 475.82C756.359 475.85 755.809 475.65 755.409 475.27C752.929 472.91 744.049 464.17 744.049 459.87C744.049 454.87 744.049 439.87 744.049 439.87C744.049 439.87 747.049 433.87 756.049 435.87Z" fill="#27497C"/>
<path d="M1441.05 505.87H1.04883V756.87H1441.05V505.87Z" fill="#27497C"/>
<g clip-path="url(#clip0_132_598)">
<g opacity="0.4" filter="url(#filter0_f_132_598)">
<path d="M333.119 505.87L313.569 554.84C313.569 554.84 310.529 557.39 312.039 564.6C313.549 571.81 314.039 570.72 314.039 570.72L283.349 639.2C283.349 639.2 279.269 650.42 287.959 654.32C296.649 658.21 302.309 647.7 302.309 647.7L332.999 579.21C332.999 579.21 336.159 580.63 339.199 578.07C342.239 575.52 345.159 569 345.159 569L373.119 505.87H333.119Z" fill="#283B4C"/>
</g>
<g opacity="0.4" filter="url(#filter1_f_132_598)">
<path d="M116.12 505.87L105.72 536.95L107.44 550.06L89.0799 601.86C89.0799 601.86 87.8399 608.36 95.3799 611.03C102.92 613.7 105.54 606.3 105.54 606.3L126.23 553.93L132.19 549.1L146.12 505.87H116.12Z" fill="#283B4C"/>
</g>
<g opacity="0.4" filter="url(#filter2_f_132_598)">
<path d="M504.121 505.87L472.251 574.21C471.581 575.69 471.191 577.27 471.171 578.83C471.131 582.46 472.261 588.58 479.631 591.9C490.571 596.83 497.131 584.71 497.131 584.71L534.121 505.87H504.121Z" fill="#283B4C"/>
</g>
<g opacity="0.4" filter="url(#filter3_f_132_598)">
<path d="M1193.12 505.87L1178.89 538.07C1178.89 538.07 1171.97 538.86 1174.6 545.21C1177.24 551.57 1181.52 544.42 1181.52 544.42L1160.31 591.9C1160.31 591.9 1156.94 599.45 1165.15 603.12C1173.37 606.79 1176.31 597.75 1176.31 597.75L1196.61 549.87C1196.61 549.87 1196.03 556.08 1203 552.73C1209.99 549.37 1220.12 505.87 1220.12 505.87H1193.12Z" fill="#283B4C"/>
</g>
<g opacity="0.4" filter="url(#filter4_f_132_598)">
<path d="M1002.12 505.87L978.739 557.13C978.739 557.13 975.349 569.43 984.449 573.57C993.559 577.7 1000.46 569.76 1000.46 569.76L1004.63 560.58C1004.63 560.58 1013.86 571.69 1019.07 560.22C1024.28 548.75 1013.88 542.63 1013.88 542.63L1028.12 505.87H1002.12Z" fill="#283B4C"/>
</g>
</g>
<path d="M805.537 135.433C805.537 164.32 791.389 176.588 770.982 181.782C787.96 173.051 799.269 159.87 799.269 143.492C799.269 117.524 767.033 82.602 717.336 82.602C689.174 82.602 668.346 92.0221 655.586 105.767C667.137 87.7777 690.222 74.543 723.604 74.543C773.301 74.543 805.537 109.465 805.537 135.433Z" fill="#247DFF"/>
<path d="M801.957 139.911C801.957 170.571 762.307 190.056 720.024 190.056C677.741 190.056 643.463 169.676 643.463 139.015C643.463 108.355 670.326 79.0205 720.024 79.0205C769.721 79.0205 801.957 113.943 801.957 139.911Z" fill="#27497C"/>
<path d="M990 198.115C990 204.544 986.337 210.758 979.496 216.623C949.785 242.153 860.196 261.333 751.184 264.037H751.041C742.31 264.261 733.463 264.378 724.5 264.378C718.688 264.378 712.913 264.333 707.2 264.234C704.111 264.19 701.039 264.127 697.986 264.055C589.055 261.351 499.474 242.224 469.629 216.74C463.468 211.475 459.851 205.941 459.143 200.228C459.045 199.529 459 198.822 459 198.115C459 161.518 577.871 131.852 724.5 131.852C860.903 131.852 973.291 157.524 988.299 190.566C989.418 193.046 990 195.563 990 198.115Z" fill="#1064E5"/>
<path d="M990 198.115C990 199.019 989.928 199.914 989.776 200.801C984.135 165.449 867.521 137.224 724.5 137.224C581.479 137.224 464.865 165.449 459.224 200.801C459.072 199.914 459 199.019 459 198.115C459 161.518 577.871 131.852 724.5 131.852C871.129 131.852 990 161.518 990 198.115Z" fill="#247DFF"/>
<path d="M989.777 200.801C989.705 201.249 989.616 201.697 989.499 202.144C981.163 167.419 865.704 139.911 724.501 139.911C583.298 139.911 467.839 167.419 459.502 202.144C459.386 201.697 459.296 201.249 459.225 200.801C464.866 165.449 581.48 137.225 724.501 137.225C867.521 137.225 984.136 165.449 989.777 200.801Z" fill="#27497C"/>
<path d="M724.499 231.246C790.52 231.246 844.041 220.622 844.041 207.516C844.041 194.411 790.52 183.787 724.499 183.787C658.478 183.787 604.957 194.411 604.957 207.516C604.957 220.622 658.478 231.246 724.499 231.246Z" fill="#247DFF"/>
<path d="M724.499 224.082C762.084 224.082 792.553 217.668 792.553 209.755C792.553 201.842 762.084 195.428 724.499 195.428C686.914 195.428 656.445 201.842 656.445 209.755C656.445 217.668 686.914 224.082 724.499 224.082Z" fill="#D8F1F0"/>
<path d="M671.221 140.806L679.28 177.519H771.511L777.779 140.806L726.291 139.015L671.221 140.806Z" fill="#27497C"/>
<path d="M751.04 264.037C742.31 264.261 733.463 264.377 724.499 264.377C718.688 264.377 712.912 264.332 707.199 264.234L709.805 238.409H749.035L751.04 264.037Z" fill="#27497C"/>
<path d="M989.284 199.073C987 194.99 984.332 191.193 981.529 187.226C976.264 183.698 970.766 180.51 965.33 177.6C965.044 177.448 964.793 177.278 964.569 177.099C964.157 180.054 961.82 183.976 953.287 186.483C940.177 190.342 861.951 190.96 861.951 190.96C861.951 190.96 883.442 197.228 886.128 209.765C888.815 222.301 868.219 227.673 868.219 227.673C868.219 227.673 916.609 227.002 960.45 220.51C968.017 219.391 974.357 218.003 979.496 216.633C985.218 211.735 988.702 206.586 989.696 201.276C989.615 200.524 989.49 199.789 989.284 199.073Z" fill="#27497C"/>
<path d="M580.476 227.665C580.476 227.665 532.086 226.993 488.245 220.501C480.884 219.409 474.688 218.074 469.628 216.74C463.468 211.475 459.85 205.941 459.143 200.228C459.214 199.843 459.295 199.458 459.402 199.073C461.677 194.99 464.354 191.193 467.157 187.217C472.431 183.698 477.92 180.502 483.355 177.591C483.642 177.439 483.893 177.269 484.117 177.09C484.529 180.045 486.875 183.967 495.408 186.474C508.518 190.334 586.744 190.951 586.744 190.951C586.744 190.951 565.253 197.219 562.567 209.756C559.88 222.292 580.476 227.665 580.476 227.665Z" fill="#27497C"/>
<path opacity="0.7" d="M657.342 207.965L515.457 548.235H926.467L792.106 207.965H657.342Z" fill="#D8F1F0"/>
<path d="M721.409 563.457C834.907 563.457 926.914 556.441 926.914 547.787C926.914 539.132 834.907 532.116 721.409 532.116C607.912 532.116 515.904 539.132 515.904 547.787C515.904 556.441 607.912 563.457 721.409 563.457Z" fill="#1064E5"/>
<path opacity="0.47" d="M592.465 558.084C614.719 558.084 632.76 555.879 632.76 553.159C632.76 550.439 614.719 548.234 592.465 548.234C570.211 548.234 552.17 550.439 552.17 553.159C552.17 555.879 570.211 558.084 592.465 558.084Z" fill="#27497C"/>
<path d="M596.378 544.849L603.237 521.147L548.238 505.217L554.48 483.664L622.551 434.629L652.307 443.243L633.762 507.303L648.716 511.637L640.586 531.964L627.709 528.239L620.85 551.941L596.378 544.849ZM614.26 483.099C616.149 476.572 619.596 465.173 621.45 459.585C614.913 465.217 601.097 476.088 579.865 491.696L609.299 500.22L614.26 483.099Z" fill="white"/>
<path opacity="0.47" d="M845.727 555.425C871.654 554.028 892.554 550.694 892.407 547.978C892.261 545.262 871.124 544.192 845.197 545.589C819.27 546.986 798.371 550.32 798.517 553.036C798.663 555.752 819.8 556.822 845.727 555.425Z" fill="#27497C"/>
<path opacity="0.47" d="M721.677 556.741C739.827 556.741 754.54 554.737 754.54 552.264C754.54 549.791 739.827 547.787 721.677 547.787C703.528 547.787 688.814 549.791 688.814 552.264C688.814 554.737 703.528 556.741 721.677 556.741Z" fill="#27497C"/>
<path d="M774.241 440.53C774.241 477.405 759.225 505.745 721.222 505.745C685.324 505.745 668.068 477.476 668.068 441.632C668.068 406.736 685.18 377.625 721.598 377.625C756.771 377.625 774.241 406.378 774.241 440.53ZM698.451 441.309C698.451 461.027 702.874 482.536 721.535 482.536C740.438 482.536 743.984 462.451 743.984 440.691C743.984 422.021 740.376 400.683 721.741 400.683C703.537 400.692 698.451 419.398 698.451 441.309Z" fill="white"/>
<path d="M848.295 550.482L842.08 525.964L785.183 540.39L779.533 518.093L814.321 439.446L845.098 431.647L861.896 497.91L877.37 493.988L880.71 516.177L867.385 519.553L873.6 544.07L848.295 550.482ZM832.105 486.609C830.395 479.858 827.538 467.993 826.275 462.083C823.419 470.447 816.829 487.218 806.146 512.04L836.591 504.321L832.105 486.609Z" fill="white"/>
</g>
<defs>
<filter id="filter0_f_132_598" x="278.393" y="501.87" width="98.7266" height="157.314" filterUnits="userSpaceOnUse" color-interpolation-filters="sRGB">
<feFlood flood-opacity="0" result="BackgroundImageFix"/>
<feBlend mode="normal" in="SourceGraphic" in2="BackgroundImageFix" result="shape"/>
<feGaussianBlur stdDeviation="2" result="effect1_foregroundBlur_132_598"/>
</filter>
<filter id="filter1_f_132_598" x="85.0039" y="501.87" width="65.1152" height="113.741" filterUnits="userSpaceOnUse" color-interpolation-filters="sRGB">
<feFlood flood-opacity="0" result="BackgroundImageFix"/>
<feBlend mode="normal" in="SourceGraphic" in2="BackgroundImageFix" result="shape"/>
<feGaussianBlur stdDeviation="2" result="effect1_foregroundBlur_132_598"/>
</filter>
<filter id="filter2_f_132_598" x="467.17" y="501.87" width="70.9512" height="95.2095" filterUnits="userSpaceOnUse" color-interpolation-filters="sRGB">
<feFlood flood-opacity="0" result="BackgroundImageFix"/>
<feBlend mode="normal" in="SourceGraphic" in2="BackgroundImageFix" result="shape"/>
<feGaussianBlur stdDeviation="2" result="effect1_foregroundBlur_132_598"/>
</filter>
<filter id="filter3_f_132_598" x="1155.62" y="501.87" width="68.4941" height="106.126" filterUnits="userSpaceOnUse" color-interpolation-filters="sRGB">
<feFlood flood-opacity="0" result="BackgroundImageFix"/>
<feBlend mode="normal" in="SourceGraphic" in2="BackgroundImageFix" result="shape"/>
<feGaussianBlur stdDeviation="2" result="effect1_foregroundBlur_132_598"/>
</filter>
<filter id="filter4_f_132_598" x="974.121" y="501.87" width="57.998" height="76.8906" filterUnits="userSpaceOnUse" color-interpolation-filters="sRGB">
<feFlood flood-opacity="0" result="BackgroundImageFix"/>
<feBlend mode="normal" in="SourceGraphic" in2="BackgroundImageFix" result="shape"/>
<feGaussianBlur stdDeviation="2" result="effect1_foregroundBlur_132_598"/>
</filter>
<clipPath id="clip0_132_598">
<rect width="1131.12" height="149.31" fill="white" transform="translate(89 505.87)"/>
</clipPath>
</defs>
</svg>
