<svg width="131" height="40" viewBox="0 0 131 40" fill="none" xmlns="http://www.w3.org/2000/svg">
<path d="M72.0167 6.56372C72.7816 6.56372 73.4092 6.79907 73.8995 7.26978C74.3899 7.72087 74.635 8.30925 74.635 9.03491C74.635 9.76058 74.3899 10.3588 73.8995 10.8295C73.4092 11.3002 72.7816 11.5355 72.0167 11.5355C71.2714 11.5355 70.6438 11.3002 70.1339 10.8295C69.6436 10.3588 69.3984 9.76058 69.3984 9.03491C69.3984 8.32886 69.6436 7.74048 70.1339 7.26978C70.6438 6.79907 71.2714 6.56372 72.0167 6.56372ZM69.8986 30.2166V14.0361H74.1055V30.2166H69.8986Z" fill="white"/>
<path d="M88.4795 14.0361H92.6864V30.0106C92.6864 32.4034 91.9607 34.3156 90.5094 35.7473C89.0581 37.1987 87.1164 37.9243 84.6845 37.9243C82.5859 37.9243 80.7619 37.3948 79.2125 36.3357C77.6827 35.2766 76.7708 33.737 76.4766 31.7169H80.8306C81.262 33.3644 82.5075 34.1881 84.5668 34.1881C87.1753 34.1881 88.4795 32.8349 88.4795 30.1283V27.8042C87.2243 29.4909 85.5278 30.3342 83.39 30.3342C81.2719 30.3342 79.5067 29.5497 78.0946 27.9807C76.7021 26.4117 76.0059 24.421 76.0059 22.0087C76.0059 19.5963 76.7119 17.6056 78.124 16.0366C79.5361 14.4676 81.2915 13.6831 83.39 13.6831C85.5474 13.6831 87.2439 14.5461 88.4795 16.272V14.0361ZM84.3314 26.3333C85.5278 26.3333 86.5182 25.9312 87.3027 25.1271C88.0873 24.323 88.4795 23.2835 88.4795 22.0087C88.4795 20.7535 88.0774 19.7238 87.2733 18.9197C86.4888 18.096 85.5082 17.6841 84.3314 17.6841C83.1547 17.6841 82.174 18.096 81.3895 18.9197C80.6246 19.7238 80.2422 20.7535 80.2422 22.0087C80.2422 23.2639 80.6246 24.3034 81.3895 25.1271C82.174 25.9312 83.1547 26.3333 84.3314 26.3333Z" fill="white"/>
<path d="M59.2801 22.0253C57.77 21.7115 56.554 21.3977 55.6322 21.0839C54.7104 20.77 53.8671 20.368 53.1022 19.8777C52.3373 19.407 51.7979 18.8186 51.4841 18.1125C51.1507 17.4065 50.984 16.5533 50.984 15.5531C50.984 14.4156 51.2292 13.4055 51.7195 12.5229C52.1902 11.66 52.8276 10.9931 53.6317 10.5224C54.4162 10.0517 55.2497 9.69871 56.1323 9.46336C56.9953 9.22801 57.8876 9.11033 58.8094 9.11033C61.6141 9.11033 63.7518 9.76735 65.2228 11.0814C66.6741 12.4151 67.5273 14.0821 67.7822 16.0826L63.5459 16.0826C63.2517 15.0235 62.7516 14.2488 62.0455 13.7585C61.3199 13.2682 60.251 13.0231 58.8389 13.0231C57.6621 13.0231 56.7697 13.229 56.1617 13.6409C55.5341 14.0527 55.2203 14.6313 55.2203 15.3766C55.2203 15.8473 55.3968 16.2199 55.7499 16.4945C56.0833 16.7887 56.4951 17.0044 56.9855 17.1417C57.4758 17.279 58.3485 17.4849 59.6038 17.7595C59.7018 17.7791 59.7803 17.7889 59.8391 17.7889C59.8783 17.8085 59.947 17.8282 60.045 17.8478C60.1235 17.8674 60.2019 17.887 60.2804 17.9066C61.3395 18.1223 62.2318 18.3577 62.9575 18.6127C63.6832 18.8676 64.399 19.2207 65.1051 19.6717C65.8112 20.1228 66.3505 20.7014 66.7231 21.4075C67.0762 22.1135 67.2527 22.9569 67.2527 23.9375C67.2527 25.9772 66.4878 27.5658 64.958 28.7034C63.4282 29.8409 61.6042 30.4097 59.4861 30.4097C56.8972 30.4097 54.9359 29.8115 53.6023 28.6151C52.249 27.4384 51.4449 25.9086 51.1899 24.0258L55.4557 24.0258C55.9656 25.6732 57.2993 26.4969 59.4567 26.4969C60.653 26.4969 61.5454 26.2714 62.1338 25.8203C62.7222 25.3888 63.0164 24.8201 63.0164 24.114C63.0164 23.5452 62.7712 23.1334 62.2809 22.8784C61.771 22.6234 60.7707 22.3391 59.2801 22.0253Z" fill="white"/>
<path fill-rule="evenodd" clip-rule="evenodd" d="M111.324 15.3311C110.285 14.1935 108.853 13.6248 107.029 13.6248C104.953 13.6248 103.313 14.4288 102.106 16.0369V14.029H101.998V13.9778H97.7913V14.029H94.6348V17.7646H97.7913V30.1582H101.998V21.6561C101.998 18.9692 103.214 17.6257 105.646 17.6257C106.725 17.6257 107.5 17.9003 107.97 18.4495C108.441 18.9986 108.676 19.8224 108.676 20.9207V30.1582H112.883V20.0087C112.883 18.0278 112.363 16.4686 111.324 15.3311Z" fill="white"/>
<path fill-rule="evenodd" clip-rule="evenodd" d="M130.216 14.0361H126.009V22.5382C126.009 23.8523 125.696 24.8525 125.068 25.539C124.46 26.2254 123.577 26.5686 122.42 26.5686C121.361 26.5686 120.596 26.294 120.126 25.7449C119.674 25.1957 119.449 24.372 119.449 23.2737V14.0361H115.242V24.1857C115.242 26.1469 115.752 27.7061 116.772 28.8633C117.811 30.0008 119.223 30.5696 121.008 30.5696C123.107 30.5696 124.774 29.7066 126.009 27.9807V30.2166H126.01V30.6243C126.01 31.8426 125.728 32.7254 125.17 33.3042C124.613 33.8819 123.766 34.1851 122.595 34.1851C121.671 34.1851 120.948 34 120.412 33.6455C119.879 33.2932 119.515 32.7632 119.326 32.0406L119.294 31.9164H114.976L115.003 32.1068C115.279 34.0021 116.139 35.4587 117.585 36.46L117.586 36.4605C119.039 37.454 120.747 37.948 122.703 37.948C124.971 37.948 126.799 37.2701 128.168 35.901C129.538 34.5499 130.216 32.7489 130.216 30.5163V30.2166H130.216V14.0361Z" fill="white"/>
<rect width="40" height="40" rx="9.92226" fill="#1064E5"/>
<path fill-rule="evenodd" clip-rule="evenodd" d="M31.0667 31.4788C28.2425 34.0677 24.6631 35.3621 20.3288 35.3621C15.7394 35.3621 11.9738 33.9304 9.03187 31.0669C6.10958 28.2231 4.64844 24.5163 4.64844 19.9466C4.64844 15.3964 6.07035 11.7092 8.91419 8.88501C11.7776 6.06079 15.4648 4.64868 19.9757 4.64868C22.29 4.64868 24.3788 5.04094 26.242 5.82544L25.5065 9.26746C23.9375 8.5418 22.1331 8.17896 20.0934 8.17896C16.622 8.17896 13.8075 9.22824 11.6502 11.3268C9.51237 13.4253 8.44348 16.3084 8.44349 19.976C8.44349 23.6239 9.54179 26.507 11.7384 28.6251C13.9546 30.7629 16.8475 31.8318 20.417 31.8318C21.986 31.8318 23.4177 31.6063 24.7122 31.1552C26.0262 30.7237 27.1932 30.0569 28.213 29.1547C29.2525 28.2721 30.0566 27.0856 30.6254 25.595C30.9247 24.8368 31.1479 24.0177 31.2949 23.1377C31.4737 21.449 31.5843 19.7433 31.2914 18.4196C31.1341 17.7084 30.895 17.2876 30.6454 17.0474C30.433 16.843 30.0591 16.6176 29.2659 16.6021C27.8583 16.5747 26.2888 17.4673 24.6887 19.1419C23.1379 20.765 21.832 22.8284 21.0312 24.3819C20.7194 24.9868 20.5038 25.4848 20.5038 25.4848L20.4212 25.4013L20.4209 25.4018L14.0415 18.9832L16.7417 16.2831L19.7283 19.2044C20.3771 18.284 21.1144 17.3553 21.9278 16.504C23.7639 14.5822 26.3067 12.7251 29.3404 12.7843C30.9306 12.8153 32.2777 13.3188 33.293 14.2957C34.271 15.2368 34.7665 16.4497 35.0198 17.5947C35.2195 18.497 35.2898 19.4662 35.2896 20.4173H35.303V20.9174C35.303 22.0601 35.21 23.1415 35.0239 24.1615L35.0188 24.2064L35.0157 24.206C34.4718 27.1398 33.1554 29.5641 31.0667 31.4788Z" fill="white"/>
</svg>
