<!--?xml version="1.0" standalone="no"?-->

<svg version="1.0" xmlns="http://www.w3.org/2000/svg" width="243.000000pt" height="58.000000pt" viewBox="0 0 243.000000 58.000000" preserveAspectRatio="xMidYMid meet" style="">

<g transform="translate(0.000000,58.000000) scale(0.100000,-0.100000)" stroke="#000000" fill="none" style="stroke-width: 28; opacity:0.8">
<path d="M270 564 c-127 -24 -265 -68 -268 -86 -4 -18 -2 -19 150 -38 47 -6
112 -19 143 -30 61 -21 125 -57 125 -69 0 -5 -51 -10 -114 -13 -141 -6 -215
-35 -243 -92 -16 -34 -16 -37 3 -57 17 -20 26 -21 109 -16 137 7 251 59 276
124 8 23 13 24 52 18 23 -4 44 -9 46 -11 3 -2 -5 -28 -17 -57 -25 -59 -26 -67
-12 -67 14 0 50 75 50 104 0 18 -8 27 -31 35 -18 6 -43 11 -56 11 -15 0 -27 9
-35 25 -21 47 -106 83 -258 110 -47 8 -101 15 -120 15 -59 0 -21 19 103 50
146 37 241 48 262 30 18 -15 30 -7 22 15 -8 19 -81 19 -187 -1z m160 -265 c0
-6 -14 -24 -30 -39 -75 -70 -330 -110 -330 -52 0 27 48 68 100 86 54 18 260
23 260 5z" class="tXoslrGZ_0"></path>
<path d="M1517 430 c-14 -25 -31 -57 -38 -72 -10 -24 -18 -27 -67 -30 -31 -2
-57 -7 -59 -13 -2 -6 17 -9 47 -7 28 2 50 0 50 -6 0 -5 -11 -35 -25 -65 -13
-31 -21 -59 -16 -62 5 -2 24 29 42 71 l33 75 45 -3 c57 -4 62 -21 25 -77 -24
-37 -27 -71 -6 -71 5 0 26 11 46 25 25 17 36 20 36 11 0 -24 27 -38 59 -31 17
3 57 31 91 61 33 30 67 54 75 54 20 0 19 -3 -10 -46 -30 -45 -31 -50 -4 -64
23 -13 55 -7 107 17 30 15 34 14 46 -2 25 -35 112 -31 386 15 l45 8 -40 1
c-22 0 -85 -6 -140 -14 -134 -19 -209 -19 -225 0 -11 13 -7 21 26 49 34 29 37
35 25 50 -7 9 -21 16 -30 16 -24 0 -61 -42 -61 -67 0 -16 -11 -26 -44 -38 -24
-9 -53 -15 -65 -13 -22 3 -21 4 9 51 16 26 30 50 30 52 0 3 -18 5 -41 5 -35 0
-47 -6 -84 -44 -83 -85 -157 -99 -102 -18 42 60 32 68 -25 21 -79 -66 -88 -72
-94 -66 -4 3 3 19 15 35 30 42 28 80 -5 92 -14 6 -36 10 -50 10 -30 0 -30 -1
2 61 32 65 26 88 -9 29z m543 -137 c-1 -11 -50 -46 -56 -40 -11 11 17 47 36
47 11 0 20 -3 20 -7z" class="tXoslrGZ_1"></path>
<path d="M576 393 c-12 -12 -6 -33 9 -33 8 0 15 6 15 14 0 17 -14 28 -24 19z" class="tXoslrGZ_2"></path>
<path d="M700 319 c-51 -30 -80 -60 -80 -80 0 -30 16 -30 82 1 69 33 88 36
106 18 8 -8 1 -23 -31 -58 -66 -74 -128 -200 -98 -200 33 0 131 130 153 202
13 44 62 79 145 104 68 21 75 5 24 -51 -23 -25 -41 -51 -39 -57 9 -26 28 -17
60 28 l33 47 5 -49 c4 -36 10 -50 23 -52 9 -2 17 1 17 7 0 6 -5 11 -11 11 -8
0 -9 14 -5 44 5 32 3 47 -6 53 -7 4 -18 17 -24 28 -9 15 -20 19 -45 17 -42 -3
-103 -27 -141 -54 -27 -19 -30 -19 -47 -4 -10 9 -24 16 -32 16 -8 0 -19 10
-24 22 -14 30 -25 31 -65 7z m49 -21 c0 -14 -109 -73 -109 -60 0 5 10 18 23
29 43 40 88 55 86 31z m48 -135 c-26 -50 -106 -146 -107 -127 -1 27 115 192
127 180 3 -2 -7 -26 -20 -53z" class="tXoslrGZ_3"></path>
<path d="M1209 295 c-45 -33 -69 -65 -69 -92 0 -31 20 -34 66 -7 41 23 42 23
47 4 7 -27 50 -26 94 1 44 28 35 36 -17 15 -49 -19 -59 -16 -52 19 6 32 -3 31
-58 -5 -50 -33 -66 -23 -29 17 35 37 71 53 92 42 11 -7 17 -7 17 0 0 10 -32
31 -47 31 -5 0 -25 -11 -44 -25z" class="tXoslrGZ_4"></path>
</g>
<style data-made-with="vivus-instant">.tXoslrGZ_0{stroke-dasharray:4034 4036;stroke-dashoffset:4035;animation:tXoslrGZ_draw_0 7200ms linear 0ms infinite,tXoslrGZ_fade 7200ms linear 0ms infinite;}.tXoslrGZ_1{stroke-dasharray:4055 4057;stroke-dashoffset:4056;animation:tXoslrGZ_draw_1 7200ms linear 0ms infinite,tXoslrGZ_fade 7200ms linear 0ms infinite;}.tXoslrGZ_2{stroke-dasharray:105 107;stroke-dashoffset:106;animation:tXoslrGZ_draw_2 7200ms linear 0ms infinite,tXoslrGZ_fade 7200ms linear 0ms infinite;}.tXoslrGZ_3{stroke-dasharray:2844 2846;stroke-dashoffset:2845;animation:tXoslrGZ_draw_3 7200ms linear 0ms infinite,tXoslrGZ_fade 7200ms linear 0ms infinite;}.tXoslrGZ_4{stroke-dasharray:962 964;stroke-dashoffset:963;animation:tXoslrGZ_draw_4 7200ms linear 0ms infinite,tXoslrGZ_fade 7200ms linear 0ms infinite;}@keyframes tXoslrGZ_draw{100%{stroke-dashoffset:0;}}@keyframes tXoslrGZ_fade{0%{stroke-opacity:1;}94.44444444444444%{stroke-opacity:1;}100%{stroke-opacity:0;}}@keyframes tXoslrGZ_draw_0{11.11111111111111%{stroke-dashoffset: 4035}38.88888888888889%{ stroke-dashoffset: 0;}100%{ stroke-dashoffset: 0;}}@keyframes tXoslrGZ_draw_1{14.583333333333334%{stroke-dashoffset: 4056}42.36111111111111%{ stroke-dashoffset: 0;}100%{ stroke-dashoffset: 0;}}@keyframes tXoslrGZ_draw_2{18.055555555555554%{stroke-dashoffset: 106}45.83333333333333%{ stroke-dashoffset: 0;}100%{ stroke-dashoffset: 0;}}@keyframes tXoslrGZ_draw_3{21.52777777777778%{stroke-dashoffset: 2845}49.30555555555556%{ stroke-dashoffset: 0;}100%{ stroke-dashoffset: 0;}}@keyframes tXoslrGZ_draw_4{25%{stroke-dashoffset: 963}52.77777777777778%{ stroke-dashoffset: 0;}100%{ stroke-dashoffset: 0;}}</style></svg>
