<svg width="60" height="60" viewBox="0 0 60 60" fill="none" xmlns="http://www.w3.org/2000/svg">
<g clip-path="url(#clip0_83_217)">
<path d="M26.2506 35.1693C26.2506 37.2368 27.9327 38.9188 30.0002 38.9188C32.0677 38.9188 33.7497 37.2368 33.7497 35.1693C33.7497 34.6518 33.3302 34.2323 32.8127 34.2323C32.2953 34.2323 31.8757 34.6518 31.8757 35.1693C31.8757 36.2035 31.0344 37.0448 30.0002 37.0448C28.9659 37.0448 28.1246 36.2035 28.1246 35.1693C28.1246 34.9759 28.1541 34.7892 28.2087 34.6136C28.2411 34.5644 28.2706 34.5129 28.2939 34.4566C28.3164 34.4019 28.3328 34.3463 28.3445 34.2905C28.6601 33.6982 29.2836 33.2938 30.0003 33.2938C30.5177 33.2938 30.9373 32.8743 30.9373 32.3568C30.9373 31.8394 30.5177 31.4198 30.0003 31.4198C28.7792 31.4198 27.693 32.0067 27.008 32.913L12.728 27.0256C12.2494 26.8283 11.7017 27.0563 11.5046 27.5348C11.3073 28.0132 11.5353 28.5609 12.0137 28.7581L26.2884 34.6434C26.264 34.8152 26.2506 34.9906 26.2506 35.1693Z" fill="#1064E5" stroke="#1064E5" stroke-width="0.5"/>
<path d="M51.2132 13.9562C45.547 8.29002 38.0134 5.16943 30.0001 5.16943C21.9867 5.16943 14.4531 8.29002 8.78679 13.9562C3.12047 19.6224 0 27.1561 0 35.1694C0 41.0374 1.70055 46.7264 4.91765 51.6217C5.09767 51.8955 5.39658 52.0442 5.70157 52.0442C5.8782 52.0442 6.0567 51.9943 6.21529 51.8902C6.64772 51.6059 6.76789 51.0249 6.48374 50.5925C5.68342 49.3749 4.98441 48.1043 4.38754 46.7926L6.97239 45.7218C7.4505 45.5238 7.67761 44.9756 7.47955 44.4975C7.28149 44.0193 6.73322 43.7925 6.25523 43.9904L3.66862 45.0618C2.59481 42.2085 1.99184 39.1893 1.89006 36.1063H4.68703C5.20449 36.1063 5.62404 35.6867 5.62404 35.1693C5.62404 34.6518 5.20449 34.2323 4.68703 34.2323H1.89112C1.99208 31.1275 2.59411 28.1101 3.65866 25.2726L6.25523 26.3482C6.37247 26.3968 6.49393 26.4197 6.61352 26.4197C6.98118 26.4197 7.33009 26.2019 7.47955 25.8411C7.67761 25.363 7.4505 24.8149 6.97239 24.6168L4.37583 23.5412C5.62943 20.782 7.33736 18.2227 9.46144 15.9558L11.4385 17.9329C11.6215 18.1158 11.8612 18.2073 12.1011 18.2073C12.341 18.2073 12.5807 18.1158 12.7637 17.9329C13.1297 17.567 13.1297 16.9737 12.7637 16.6078L10.7866 14.6308C13.0535 12.5068 15.6128 10.7989 18.372 9.54514L19.4476 12.1417C19.597 12.5026 19.946 12.7203 20.3136 12.7203C20.4332 12.7203 20.5547 12.6974 20.6719 12.6487C21.15 12.4507 21.3771 11.9025 21.1791 11.4244L20.1035 8.82786C22.941 7.76331 25.9584 7.16128 29.0632 7.06032V9.85623C29.0632 10.3737 29.4827 10.7932 30.0002 10.7932C30.5176 10.7932 30.9372 10.3737 30.9372 9.85623V7.06055C34.042 7.16151 37.0594 7.76354 39.8969 8.8281L38.8213 11.4247C38.6232 11.9028 38.8503 12.4509 39.3284 12.649C39.4457 12.6976 39.5671 12.7205 39.6867 12.7205C40.0544 12.7205 40.4033 12.5027 40.5528 12.1419L41.6283 9.54538C44.3876 10.799 46.9469 12.5069 49.2136 14.631L47.2365 16.6081C46.8705 16.974 46.8705 17.5672 47.2365 17.9331C47.4195 18.1161 47.6593 18.2075 47.8991 18.2075C48.139 18.2075 48.3788 18.1161 48.5617 17.9331L50.5388 15.956C52.6628 18.2229 54.3707 20.7822 55.6244 23.5415L53.0278 24.617C52.5497 24.8151 52.3226 25.3632 52.5207 25.8413C52.6701 26.2022 53.0191 26.4199 53.3867 26.4199C53.5063 26.4199 53.6278 26.397 53.745 26.3484L56.3416 25.2728C57.4061 28.1103 58.0082 31.1277 58.1091 34.2325H55.3132C54.7957 34.2325 54.3762 34.652 54.3762 35.1695C54.3762 35.687 54.7957 36.1065 55.3132 36.1065H58.1101C58.0084 39.1895 57.4053 42.2088 56.3315 45.0621L53.7449 43.9906C53.2669 43.7929 52.7188 44.0196 52.5206 44.4978C52.3225 44.9759 52.5496 45.524 53.0277 45.7221L55.6126 46.7928C55.0157 48.1046 54.3167 49.3751 53.5164 50.5928C53.2321 51.0252 53.3524 51.6061 53.7848 51.8904C54.2171 52.1744 54.7982 52.0544 55.0825 51.6219C58.2997 46.7268 60.0001 41.0376 60.0001 35.1696C60 27.1561 56.8794 19.6224 51.2132 13.9562Z" fill="#1064E5" stroke="#1064E5" stroke-width="0.5"/>
<path d="M38.4174 45.4609H21.5513C20.0013 45.4609 18.7402 46.722 18.7402 48.272V52.02C18.7402 53.5699 20.0013 54.831 21.5513 54.831H38.4174C39.9673 54.831 41.2284 53.5699 41.2284 52.02V48.272C41.2284 46.7219 39.9673 45.4609 38.4174 45.4609ZM39.3544 52.02C39.3544 52.5366 38.934 52.957 38.4174 52.957H21.5513C21.0346 52.957 20.6142 52.5366 20.6142 52.02V48.272C20.6142 47.7553 21.0346 47.335 21.5513 47.335H38.4174C38.934 47.335 39.3544 47.7553 39.3544 48.272V52.02Z" fill="#1064E5" stroke="#1064E5" stroke-width="0.5"/>
<path d="M30.9214 49.209H29.0474C28.5299 49.209 28.1104 49.6285 28.1104 50.146C28.1104 50.6635 28.5299 51.083 29.0474 51.083H30.9214C31.4388 51.083 31.8584 50.6635 31.8584 50.146C31.8584 49.6285 31.4388 49.209 30.9214 49.209Z" fill="#1064E5" stroke="#1064E5" stroke-width="0.5"/>
<path d="M26.2358 49.209H24.3618C23.8444 49.209 23.4248 49.6285 23.4248 50.146C23.4248 50.6635 23.8444 51.083 24.3618 51.083H26.2358C26.7533 51.083 27.1728 50.6635 27.1728 50.146C27.1728 49.6285 26.7533 49.209 26.2358 49.209Z" fill="#1064E5" stroke="#1064E5" stroke-width="0.5"/>
<path d="M35.606 49.209H33.7319C33.2145 49.209 32.7949 49.6285 32.7949 50.146C32.7949 50.6635 33.2145 51.083 33.7319 51.083H35.606C36.1234 51.083 36.543 50.6635 36.543 50.146C36.543 49.6285 36.1234 49.209 35.606 49.209Z" fill="#1064E5" stroke="#1064E5" stroke-width="0.5"/>
</g>
<defs>
<clipPath id="clip0_83_217">
<rect width="60" height="60" fill="white"/>
</clipPath>
</defs>
</svg>
