<svg width="40" height="40" viewBox="0 0 40 40" fill="none" xmlns="http://www.w3.org/2000/svg">
<rect width="40" height="40" rx="9.92226" fill="#1064E5"/>
<path fill-rule="evenodd" clip-rule="evenodd" d="M31.0667 31.4785C28.2425 34.0674 24.6631 35.3618 20.3288 35.3618C15.7394 35.3618 11.9738 33.9301 9.03187 31.0667C6.10958 28.2228 4.64844 24.5161 4.64844 19.9463C4.64844 15.3962 6.07035 11.709 8.91419 8.88477C11.7776 6.06055 15.4648 4.64844 19.9757 4.64844C22.29 4.64844 24.3788 5.04069 26.242 5.8252L25.5065 9.26722C23.9375 8.54155 22.1331 8.17872 20.0934 8.17872C16.622 8.17872 13.8075 9.22799 11.6502 11.3265C9.51237 13.4251 8.44348 16.3082 8.44349 19.9757C8.44349 23.6237 9.54179 26.5067 11.7384 28.6249C13.9546 30.7627 16.8475 31.8316 20.417 31.8316C21.986 31.8316 23.4177 31.606 24.7122 31.1549C26.0262 30.7235 27.1932 30.0566 28.213 29.1544C29.2525 28.2719 30.0566 27.0853 30.6254 25.5947C30.9247 24.8365 31.1479 24.0174 31.2949 23.1374C31.4737 21.4488 31.5843 19.743 31.2914 18.4194C31.1341 17.7081 30.895 17.2874 30.6454 17.0471C30.433 16.8428 30.0591 16.6174 29.2659 16.6019C27.8583 16.5744 26.2888 17.467 24.6887 19.1417C23.1379 20.7648 21.832 22.8282 21.0312 24.3817C20.7194 24.9865 20.5038 25.4846 20.5038 25.4846L20.4212 25.4011L20.4209 25.4016L14.0415 18.983L16.7417 16.2828L19.7283 19.2042C20.3771 18.2838 21.1144 17.355 21.9278 16.5037C23.7639 14.582 26.3067 12.7249 29.3404 12.784C30.9306 12.8151 32.2777 13.3185 33.293 14.2955C34.271 15.2365 34.7665 16.4495 35.0198 17.5945C35.2195 18.4968 35.2898 19.466 35.2896 20.417H35.303V20.9171C35.303 22.0599 35.21 23.1413 35.0239 24.1613L35.0188 24.2061L35.0157 24.2058C34.4718 27.1396 33.1554 29.5639 31.0667 31.4785Z" fill="white"/>
</svg>
