<svg width="16" height="23" viewBox="0 0 16 23" fill="none" xmlns="http://www.w3.org/2000/svg">
<path d="M8 0C3.57714 0 0 3.57714 0 8C0 14 8 22.8571 8 22.8571C8 22.8571 16 14 16 8C16 3.57714 12.4229 0 8 0ZM8 10.8571C7.24224 10.8571 6.51551 10.5561 5.9797 10.0203C5.44388 9.48449 5.14286 8.75776 5.14286 8C5.14286 7.24224 5.44388 6.51551 5.9797 5.9797C6.51551 5.44388 7.24224 5.14286 8 5.14286C8.75776 5.14286 9.48449 5.44388 10.0203 5.9797C10.5561 6.51551 10.8571 7.24224 10.8571 8C10.8571 8.75776 10.5561 9.48449 10.0203 10.0203C9.48449 10.5561 8.75776 10.8571 8 10.8571Z" fill="#1064E5"/>
</svg>
